<svg class="ldi-w2dnez" width="200px"  height="200px"  xmlns="http://www.w3.org/2000/svg" xmlns:xlink="http://www.w3.org/1999/xlink" viewBox="0 0 100 100" preserveAspectRatio="xMidYMid" style="background: none;"><!--?xml version="1.0" encoding="utf-8"?--><!--Generator: Adobe Illustrator 21.0.0, SVG Export Plug-In . SVG Version: 6.00 Build 0)--><svg version="1.1" id="圖層_1" xmlns="http://www.w3.org/2000/svg" xmlns:xlink="http://www.w3.org/1999/xlink" x="0px" y="0px" viewBox="0 0 100 100" style="transform-origin: 50px 50px 0px;" xml:space="preserve"><g style="transform-origin: 50px 50px 0px; transform: scale(0.6);"><g style="transform-origin: 50px 50px 0px;"><style type="text/css" class="ld ld-breath" style="transform-origin: 50px 50px 0px; animation-duration: 1s; animation-delay: -1s;">.st0{fill:#C33737;} .st1{fill:#77A4BD;} .st2{fill:#A0C8D7;} .st3{fill:#F5E6C8;} .st4{fill:#F8B26A;} .st5{fill:#F47E60;} .st6{fill:#E0E0E0;} .st7{fill:#E15B64;} .st8{fill:url(#SVGID_1_);stroke:#333333;stroke-width:2;stroke-linecap:round;stroke-linejoin:round;stroke-miterlimit:10;} .st9{fill:url(#SVGID_2_);stroke:#333333;stroke-width:2;stroke-linecap:round;stroke-linejoin:round;stroke-miterlimit:10;} .st10{fill:#C33737;stroke:#333333;stroke-width:5;stroke-miterlimit:10;} .st11{fill:#E0E0E0;stroke:#333333;stroke-width:3;stroke-linecap:round;stroke-linejoin:round;stroke-miterlimit:10;} .st12{fill:#333333;stroke:#333333;stroke-width:4;stroke-linecap:round;stroke-linejoin:round;stroke-miterlimit:10;} .st13{fill:#66503A;} .st14{fill:#333333;} .st15{fill:#666666;} .st16{fill:#E15B64;stroke:#333333;stroke-width:4;stroke-linecap:square;stroke-miterlimit:10;} .st17{fill:#C33737;stroke:#333333;stroke-width:4;stroke-linecap:round;stroke-linejoin:round;stroke-miterlimit:10;} .st18{fill:#ABBD81;} .st19{fill:#B3B3B3;} .st20{fill:#4A3827;} .st21{fill:none;stroke:#333333;stroke-width:1.9195;stroke-linecap:round;stroke-miterlimit:10;} .st22{fill:#FFFFFF;} .st23{fill:#EBA523;stroke:#000000;stroke-width:2.1426;stroke-linecap:round;stroke-linejoin:round;} .st24{fill:#E0E0E0;stroke:#000000;stroke-width:2.1426;stroke-linecap:round;} .st25{fill:#F5E6C8;stroke:#000000;stroke-width:2.1426;stroke-linecap:round;stroke-linejoin:round;} .st26{fill:#333333;stroke:#000000;stroke-width:2.1426;stroke-linecap:round;stroke-linejoin:round;} .st27{fill:none;stroke:#000000;stroke-width:2.1426;stroke-linecap:round;stroke-linejoin:round;} .st28{fill:#EBA523;} .st29{fill:#F2F2F2;} .st30{fill:none;stroke:#333333;stroke-width:1.9414;} .st31{fill:none;stroke:#333333;stroke-width:0.9779;} .st32{fill:#C9C9C9;} .st33{fill:#E0E0E0;stroke:#333333;stroke-width:4;stroke-linecap:square;stroke-miterlimit:10;} .st34{fill:#E15B64;stroke:#333333;stroke-width:5.1702;stroke-linecap:round;stroke-linejoin:round;stroke-miterlimit:10;} .st35{fill:#C33737;stroke:#333333;stroke-width:5.1702;stroke-linecap:round;stroke-linejoin:round;stroke-miterlimit:10;} .st36{fill:#E0E0E0;stroke:#333333;stroke-width:5.1702;stroke-linecap:round;stroke-linejoin:round;stroke-miterlimit:10;} .st37{fill:#666666;stroke:#333333;stroke-width:5.0109;stroke-linecap:round;stroke-linejoin:round;stroke-miterlimit:10;} .st38{fill:#333333;stroke:#333333;stroke-width:5.0109;stroke-linecap:round;stroke-linejoin:round;stroke-miterlimit:10;} .st39{fill:#E0E0E0;stroke:#333333;stroke-width:5.0109;stroke-linecap:round;stroke-linejoin:round;stroke-miterlimit:10;} .st40{fill:#666666;stroke:#333333;stroke-width:4.8877;stroke-linecap:round;stroke-linejoin:round;stroke-miterlimit:10;} .st41{fill:#333333;stroke:#333333;stroke-width:4.8877;stroke-linecap:round;stroke-linejoin:round;stroke-miterlimit:10;} .st42{fill:#E0E0E0;stroke:#333333;stroke-width:4.8877;stroke-linecap:round;stroke-linejoin:round;stroke-miterlimit:10;} .st43{fill:#666666;stroke:#333333;stroke-width:2.4823;stroke-linecap:round;stroke-linejoin:round;stroke-miterlimit:10;} .st44{fill:#E0E0E0;stroke:#333333;stroke-width:2.4823;stroke-linecap:round;stroke-linejoin:round;stroke-miterlimit:10;} .st45{fill:#F8B26A;stroke:#333333;stroke-width:2.4823;stroke-linecap:round;stroke-linejoin:round;stroke-miterlimit:10;} .st46{fill:#E0E0E0;stroke:#333333;stroke-width:1.5;stroke-linecap:round;stroke-linejoin:round;stroke-miterlimit:10;} .st47{fill:#E0E0E0;stroke:#333333;stroke-width:4.2024;stroke-linecap:round;stroke-linejoin:round;stroke-miterlimit:10;} .st48{fill:none;stroke:#333333;stroke-width:3.583;stroke-linecap:round;stroke-linejoin:round;stroke-miterlimit:10;} .st49{fill:#77A4BD;stroke:#333333;stroke-width:3;stroke-linecap:round;stroke-linejoin:round;stroke-miterlimit:10;} .st50{fill:none;stroke:#333333;stroke-width:2.1242;stroke-linecap:round;stroke-linejoin:round;stroke-miterlimit:10;} .st51{fill:none;stroke:#333333;stroke-width:1.1469;stroke-linecap:round;stroke-linejoin:round;stroke-miterlimit:10;} .st52{fill:none;stroke:#333333;stroke-width:3.1863;stroke-linecap:round;stroke-linejoin:round;stroke-miterlimit:10;} .st53{fill:#E0E0E0;stroke:#333333;stroke-width:4.3804;stroke-linecap:round;stroke-linejoin:round;stroke-miterlimit:10;} .st54{fill:none;stroke:#333333;stroke-width:4;stroke-miterlimit:10;} .st55{fill:#E15B64;stroke:#333333;stroke-width:4;stroke-miterlimit:10;} .st56{fill:#E15B64;stroke:#333333;stroke-width:5;stroke-miterlimit:10;} .st57{fill:#E15B64;stroke:#333333;stroke-width:4;stroke-linecap:round;stroke-linejoin:round;stroke-miterlimit:10;} .st58{fill:#849B87;} .st59{fill:none;stroke:#333333;stroke-width:4;stroke-linejoin:round;stroke-miterlimit:10;} .st60{fill:#E0E0E0;stroke:#333333;stroke-width:2;stroke-linecap:round;stroke-linejoin:round;stroke-miterlimit:10;} .st61{fill:#FFFFFF;stroke:#000000;stroke-width:4;stroke-miterlimit:10;} .st62{fill:none;stroke:#849B87;stroke-width:4;stroke-linecap:round;stroke-miterlimit:10;} .st63{fill:none;stroke:#E15B64;stroke-width:4;stroke-linecap:round;stroke-miterlimit:10;} .st64{opacity:0.7;fill:#E0E0E0;} .st65{fill:none;stroke:#333333;stroke-width:3;stroke-miterlimit:10;} .st66{fill:#F5E6C8;stroke:#333333;stroke-width:3;stroke-miterlimit:10;} .st67{fill:#E0E0E0;stroke:#000000;stroke-width:3;stroke-miterlimit:10;} .st68{fill:none;stroke:#FFFFFF;stroke-width:2;stroke-miterlimit:10;} .st69{fill:#E15B64;stroke:#333333;stroke-width:4.5704;stroke-miterlimit:10;} .st70{fill:#F47E60;stroke:#333333;stroke-width:4.5704;stroke-miterlimit:10;} .st71{fill:none;stroke:#333333;stroke-width:3.0919;stroke-linecap:round;stroke-miterlimit:10;} .st72{fill-rule:evenodd;clip-rule:evenodd;fill:#F47E60;} .st73{fill:none;stroke:#FFFFFF;stroke-width:2.0255;stroke-miterlimit:10;} .st74{fill:#FFFFFF;stroke:#333333;stroke-width:4.7792;stroke-linecap:round;stroke-linejoin:round;stroke-miterlimit:10;} .st75{fill:none;stroke:#FFFFFF;stroke-width:3.8751;stroke-linecap:round;stroke-linejoin:round;stroke-miterlimit:10;}</style><g style="transform-origin: 50px 50px 0px;"><g class="ld ld-breath" style="transform-origin: 50px 50px 0px; animation-duration: 1s; animation-delay: -0.95s;"><path class="st14" d="M89.115,31.867c-0.03-0.149-0.146-0.515-0.567-0.691L50.137,15.072c-0.364-0.152-0.779-0.069-1.054,0.214 L12.792,52.451c-0.319,0.327-0.283,0.709-0.253,0.858s0.146,0.515,0.567,0.691l6.303,2.643l3.338,1.399l28.77,12.062l0,0 c0.363,0.153,0.778,0.069,1.054-0.214l26.337-26.971l2.528-2.589l7.426-7.605C89.181,32.398,89.145,32.016,89.115,31.867z" fill="#cc232a" style="fill: rgb(204, 35, 42);"></path></g><g class="ld ld-breath" style="transform-origin: 50px 50px 0px; animation-duration: 1s; animation-delay: -0.9s;"><path class="st6" d="M82.245,44.318L54.979,72.242c-0.834,0.854-1.946,1.306-3.083,1.306c-0.564,0-1.134-0.111-1.68-0.34 c0,0-29.997-12.576-29.997-12.576l-3.338-1.399c-0.788-0.33-1.576-0.661-2.364-0.991c-0.571-0.24-1.143-0.479-1.714-0.719 c-0.523-0.219-1.07-0.68-1.575-0.169c-0.224,0.227-0.334,0.541-0.413,0.85c-0.279,1.087-0.222,2.275-0.179,3.388 c0.046,1.188,0.217,2.371,0.496,3.527c0.168,0.694,0.372,1.379,0.61,2.053c0.229,0.647,0.471,1.321,0.837,1.906 c0.214,0.341,0.511,0.729,0.896,0.871c0.087,0.032,0.173,0.065,0.259,0.101c0.175,0.073,0.351,0.147,0.526,0.221 c0.49,0.206,0.981,0.411,1.471,0.617c0.654,0.274,1.308,0.548,1.962,0.823c0.791,0.332,1.581,0.663,2.372,0.995 c0.901,0.378,1.801,0.755,2.702,1.133c0.984,0.412,1.967,0.825,2.951,1.237c1.04,0.436,2.079,0.872,3.119,1.308 c1.069,0.448,2.138,0.896,3.206,1.344c1.071,0.449,2.142,0.898,3.213,1.347c1.046,0.439,2.093,0.877,3.139,1.316 c0.995,0.417,1.99,0.834,2.984,1.251c0.916,0.384,1.833,0.768,2.749,1.152c0.811,0.34,1.622,0.68,2.433,1.02 c0.679,0.285,1.357,0.569,2.036,0.854c0.519,0.218,1.039,0.436,1.558,0.653c0.333,0.14,0.667,0.28,1,0.419 c0.12,0.05,0.241,0.101,0.361,0.151c0.363,0.152,0.777,0.069,1.054-0.214l33.674-34.485v-5.195v-3.649v-2.123l-1.471,1.507 L82.245,44.318z" fill="#fef02d" style="fill: rgb(254, 240, 45);"></path></g><g class="ld ld-breath" style="transform-origin: 50px 50px 0px; animation-duration: 1s; animation-delay: -0.85s;"><path d="M91.27,35.076c1.001-1.025,1.429-2.475,1.143-3.879c-0.285-1.403-1.243-2.572-2.564-3.126L51.438,11.968 c-1.645-0.689-3.515-0.31-4.763,0.966c-0.18,0.184-0.36,0.368-0.539,0.552c-0.836,0.856-1.672,1.712-2.508,2.568 c-1.362,1.394-2.723,2.789-4.085,4.183c-1.714,1.755-3.428,3.51-5.142,5.266c-1.893,1.939-3.786,3.877-5.679,5.816 c-1.899,1.945-3.798,3.889-5.696,5.834c-1.731,1.773-3.463,3.546-5.194,5.319c-1.391,1.424-2.781,2.848-4.172,4.272 c-1.183,1.211-2.366,2.294-3.319,3.724c-0.655,0.984-1.058,2.005-1.466,3.11c-0.109,0.296-0.213,0.595-0.311,0.895 c-0.184,0.568-0.347,1.144-0.486,1.725c-0.271,1.136-0.452,2.294-0.532,3.459c-0.161,2.333,0.088,4.682,0.695,6.939 c0.483,1.797,1.101,3.638,2.295,5.097c0.569,0.695,1.173,1.217,2.01,1.507c0.228,0.079,0.45,0.189,0.673,0.282 c1.477,0.619,2.955,1.239,4.432,1.858c2.147,0.9,4.293,1.8,6.439,2.7c2.47,1.035,4.94,2.071,7.409,3.106 c2.447,1.026,4.894,2.052,7.342,3.078c2.079,0.872,4.158,1.743,6.237,2.615c1.365,0.572,2.73,1.144,4.094,1.716 c0.347,0.145,0.694,0.291,1.041,0.437c0.545,0.228,1.115,0.34,1.679,0.34c1.137,0,2.249-0.452,3.084-1.306L91.27,50.862 c1.001-1.025,1.428-2.475,1.144-3.878c-0.285-1.404-1.244-2.573-2.565-3.127l-0.239-0.1v-6.981L91.27,35.076z M86.245,42.346v3.649 v5.195L52.571,85.676c-0.277,0.283-0.691,0.367-1.054,0.214c-0.12-0.05-0.241-0.101-0.361-0.151c-0.333-0.14-0.667-0.279-1-0.419 c-0.519-0.218-1.039-0.436-1.558-0.653c-0.679-0.285-1.357-0.569-2.036-0.854c-0.811-0.34-1.622-0.68-2.433-1.02 c-0.916-0.384-1.833-0.768-2.749-1.152c-0.995-0.417-1.99-0.834-2.984-1.251c-1.046-0.439-2.093-0.877-3.139-1.316 c-1.071-0.449-2.142-0.898-3.213-1.347c-1.069-0.448-2.138-0.896-3.206-1.344c-1.04-0.436-2.079-0.872-3.119-1.308 c-0.984-0.412-1.967-0.825-2.951-1.237c-0.901-0.378-1.801-0.755-2.702-1.133c-0.791-0.332-1.581-0.663-2.372-0.995 c-0.654-0.274-1.308-0.548-1.962-0.823c-0.49-0.206-0.981-0.411-1.471-0.617c-0.175-0.073-0.351-0.147-0.526-0.221 c-0.086-0.036-0.172-0.069-0.259-0.101c-0.385-0.142-0.682-0.53-0.896-0.871c-0.366-0.584-0.608-1.258-0.837-1.906 c-0.238-0.673-0.442-1.359-0.61-2.053c-0.279-1.156-0.45-2.338-0.496-3.527c-0.043-1.113-0.1-2.302,0.179-3.388 c0.079-0.309,0.189-0.623,0.413-0.85c0.505-0.511,1.051-0.051,1.575,0.169c0.571,0.24,1.143,0.479,1.714,0.719 c0.788,0.33,1.576,0.661,2.364,0.991l3.338,1.399c0,0,29.997,12.576,29.997,12.576c0.546,0.228,1.115,0.34,1.68,0.34 c1.138,0,2.249-0.452,3.083-1.306l27.266-27.924l2.528-2.589l1.471-1.507V42.346z M88.862,32.725l-7.426,7.605l-2.528,2.589 L52.571,69.89c-0.277,0.282-0.691,0.367-1.054,0.214l0,0l-28.77-12.062l-3.338-1.399l-6.303-2.643 c-0.421-0.176-0.537-0.542-0.567-0.691c-0.021-0.102-0.036-0.315,0.054-0.544c0.017-0.037,0.036-0.074,0.054-0.11 c0.039-0.069,0.08-0.138,0.145-0.204l36.291-37.165c0.275-0.283,0.689-0.366,1.054-0.214l38.411,16.104 c0.421,0.176,0.537,0.542,0.567,0.691C89.145,32.016,89.181,32.398,88.862,32.725z" fill="#001c27" style="fill: rgb(0, 28, 39);"></path></g></g><g style="transform-origin: 50px 50px 0px;"><g class="ld ld-breath" style="transform-origin: 50px 50px 0px; animation-duration: 1s; animation-delay: -0.8s;"><rect x="19.343" y="26.976" transform="matrix(-0.7071 -0.7071 0.7071 -0.7071 39.1974 84.1146)" class="st23" width="35.353" height="13.927" stroke="#001c27" fill="#ffffff" style="stroke: rgb(0, 28, 39); fill: rgb(255, 255, 255);"></rect></g><g class="ld ld-breath" style="transform-origin: 50px 50px 0px; animation-duration: 1s; animation-delay: -0.75s;"><path class="st24" d="M29.444,16.516l-4.992-4.992c-1.144-1.144-3-1.144-4.144,0l-5.704,5.704c-1.144,1.144-1.144,3,0,4.144 l4.992,4.992L29.444,16.516z" fill="#fef02d" stroke="#001c27" style="fill: rgb(254, 240, 45); stroke: rgb(0, 28, 39);"></path></g><g class="ld ld-breath" style="transform-origin: 50px 50px 0px; animation-duration: 1s; animation-delay: -0.7s;"><polygon class="st25" points="51.267,52.738 55.818,48.187 54.442,41.514 49.518,46.438 44.595,51.362 	" stroke="#001c27" fill="#459a56" style="stroke: rgb(0, 28, 39); fill: rgb(69, 154, 86);"></polygon></g><g class="ld ld-breath" style="transform-origin: 50px 50px 0px; animation-duration: 1s; animation-delay: -0.65s;"><polygon class="st26" points="57,53.92 55.818,48.187 51.267,52.738 	" fill="#cc232a" stroke="#001c27" style="fill: rgb(204, 35, 42); stroke: rgb(0, 28, 39);"></polygon></g><g class="ld ld-breath" style="transform-origin: 50px 50px 0px; animation-duration: 1s; animation-delay: -0.6s;"><line class="st27" x1="45.826" y1="42.745" x2="28.403" y2="25.323" stroke="#001c27" style="stroke: rgb(0, 28, 39);"></line></g></g><metadata xmlns:d="https://loading.io/stock/" class="ld ld-breath" style="transform-origin: 50px 50px 0px; animation-duration: 1s; animation-delay: -0.55s;">
<d:name class="ld ld-breath" style="transform-origin: 50px 50px 0px; animation-duration: 1s; animation-delay: -0.5s;">edit</d:name>
<d:tags class="ld ld-breath" style="transform-origin: 50px 50px 0px; animation-duration: 1s; animation-delay: -0.45s;">compose,write,design,draft,idea,create,author,editor,editorial,book,pen,draw,edit,books</d:tags>
<d:license class="ld ld-breath" style="transform-origin: 50px 50px 0px; animation-duration: 1s; animation-delay: -0.4s;">cc-by</d:license>
<d:slug class="ld ld-breath" style="transform-origin: 50px 50px 0px; animation-duration: 1s; animation-delay: -0.35s;">w2dnez</d:slug>
</metadata></g></g><style type="text/css" class="ld ld-breath" style="transform-origin: 50px 50px 0px; animation-duration: 1s; animation-delay: -0.3s;">path,ellipse,circle,rect,polygon,polyline,line { stroke-width: 0; }@keyframes ld-breath {
  0% {
    -webkit-transform: scale(0.86);
    transform: scale(0.86);
  }
  50% {
    -webkit-transform: scale(1.06);
    transform: scale(1.06);
  }
  100% {
    -webkit-transform: scale(0.86);
    transform: scale(0.86);
  }
}
@-webkit-keyframes ld-breath {
  0% {
    -webkit-transform: scale(0.86);
    transform: scale(0.86);
  }
  50% {
    -webkit-transform: scale(1.06);
    transform: scale(1.06);
  }
  100% {
    -webkit-transform: scale(0.86);
    transform: scale(0.86);
  }
}
.ld.ld-breath {
  -webkit-animation: ld-breath 1s infinite;
  animation: ld-breath 1s infinite;
}
</style></svg></svg>