<svg class="ldi-7w5aga" width="200px"  height="200px"  xmlns="http://www.w3.org/2000/svg" xmlns:xlink="http://www.w3.org/1999/xlink" viewBox="0 0 100 100" preserveAspectRatio="xMidYMid" style="background: none;"><!--?xml version="1.0" encoding="utf-8"?--><!--Generator: Adobe Illustrator 21.0.0, SVG Export Plug-In . SVG Version: 6.00 Build 0)--><svg version="1.1" id="Layer_1" xmlns="http://www.w3.org/2000/svg" xmlns:xlink="http://www.w3.org/1999/xlink" x="0px" y="0px" viewBox="0 0 100 100" style="transform-origin: 50px 50px 0px;" xml:space="preserve"><g style="transform-origin: 50px 50px 0px; transform: scale(0.6);"><g style="transform-origin: 50px 50px 0px;"><style type="text/css" class="ld ld-float-px" style="transform-origin: 50px 50px 0px; animation-duration: 1s; animation-delay: -1s;">.st0{fill:#F4E6C8;} .st1{fill:#333333;} .st2{fill:#E0E0E0;} .st3{fill:#E15C64;} .st4{fill:#C33837;} .st5{fill:#D65A62;} .st6{fill:none;} .st7{fill:#F7B26A;} .st8{fill:#F47E5F;} .st9{opacity:0.2;fill:#353035;} .st10{fill:#666766;} .st11{fill:#A0C8D7;} .st12{fill:#77A4BD;} .st13{fill:#ACBD81;} .st14{fill:#FFFFFF;} .st15{fill:#849B87;} .st16{fill:none;stroke:#E0E0E0;stroke-width:4;stroke-miterlimit:10;} .st17{fill:none;stroke:#333333;stroke-width:4;stroke-miterlimit:10;} .st18{fill:#FFFFFF;stroke:#333333;stroke-width:4;stroke-miterlimit:10;} .st19{fill:none;stroke:#000000;stroke-width:4;stroke-miterlimit:10;} .st20{fill:#FFFFFF;stroke:#000000;stroke-width:4;stroke-miterlimit:10;} .st21{fill:#010101;} .st22{fill:#A5A6A6;} .st23{fill:#666666;} .st24{fill:#F3E4C7;} .st25{fill:none;stroke:#FFFFFF;stroke-linecap:round;stroke-miterlimit:10;} .st26{fill:#353035;} .st27{fill:#B93A38;} .st28{fill:#EA7C60;} .st29{fill:#E0E0E0;stroke:#F7B26A;stroke-width:8;stroke-miterlimit:10;} .st30{fill:none;stroke:#F7B26A;stroke-width:10;stroke-linecap:round;stroke-miterlimit:10;} .st31{fill:none;stroke:#010101;stroke-width:8;stroke-miterlimit:10;} .st32{fill:#F0AF6B;stroke:#010101;stroke-width:8;stroke-miterlimit:10;} .st33{fill:#829985;} .st34{fill:#A8B980;} .st35{fill:#F0AF6B;} .st36{fill:#4A3827;} .st37{fill:#332518;} .st38{fill:#E6E6E6;}</style><g class="ld ld-float-px" style="transform-origin: 50px 50px 0px; animation-duration: 1s; animation-delay: -0.952381s;"><polygon class="st6" points="44.1,11.2 40.3,17.8 59.7,17.8 55.9,11.2 "></polygon></g><g class="ld ld-float-px" style="transform-origin: 50px 50px 0px; animation-duration: 1s; animation-delay: -0.904762s;"><path class="st2" d="M66,82L66,82c2.3,0,4.1-1.8,4.1-4V34.8c0-2.2-1.8-4-4-4H66c-2.2,0-4,1.8-4,4V78C62,80.2,63.8,82,66,82z" fill="rgb(224, 224, 224)" style="fill: rgb(224, 224, 224);"></path></g><g class="ld ld-float-px" style="transform-origin: 50px 50px 0px; animation-duration: 1s; animation-delay: -0.857143s;"><path class="st2" d="M50,82L50,82c2.3,0,4.1-1.8,4.1-4V34.8c0-2.2-1.8-4-4-4H50c-2.2,0-4,1.8-4,4V78C46,80.2,47.8,82,50,82z" fill="rgb(224, 224, 224)" style="fill: rgb(224, 224, 224);"></path></g><g class="ld ld-float-px" style="transform-origin: 50px 50px 0px; animation-duration: 1s; animation-delay: -0.809524s;"><path class="st2" d="M33.9,82L33.9,82c2.3,0,4.1-1.8,4.1-4V34.8c0-2.2-1.8-4-4-4h-0.1c-2.2,0-4,1.8-4,4V78 C29.9,80.2,31.7,82,33.9,82z" fill="rgb(224, 224, 224)" style="fill: rgb(224, 224, 224);"></path></g><g class="ld ld-float-px" style="transform-origin: 50px 50px 0px; animation-duration: 1s; animation-delay: -0.761905s;"><path class="st6" d="M33.9,82L33.9,82c2.3,0,4.1-1.8,4.1-4V34.8c0-2.2-1.8-4-4-4h-0.1c-2.2,0-4,1.8-4,4V78 C29.9,80.2,31.7,82,33.9,82z"></path></g><g class="ld ld-float-px" style="transform-origin: 50px 50px 0px; animation-duration: 1s; animation-delay: -0.714286s;"><path class="st6" d="M50,82L50,82c2.3,0,4.1-1.8,4.1-4V34.8c0-2.2-1.8-4-4-4H50c-2.2,0-4,1.8-4,4V78C46,80.2,47.8,82,50,82z"></path></g><g class="ld ld-float-px" style="transform-origin: 50px 50px 0px; animation-duration: 1s; animation-delay: -0.666667s;"><path class="st6" d="M66,82L66,82c2.3,0,4.1-1.8,4.1-4V34.8c0-2.2-1.8-4-4-4H66c-2.2,0-4,1.8-4,4V78C62,80.2,63.8,82,66,82z"></path></g><g class="ld ld-float-px" style="transform-origin: 50px 50px 0px; animation-duration: 1s; animation-delay: -0.619048s;"><path class="st23" d="M21.9,27.8v53.3c0,4.9,4,8.9,8.9,8.9h38.4c4.9,0,8.9-4,8.9-8.9V27.8v-2H21.9V27.8z M62,34.8c0-2.2,1.8-4,4-4 h0.1c2.2,0,4,1.8,4,4V78c0,2.2-1.8,4-4,4H66c-2.2,0-4-1.8-4-4V34.8z M46,34.8c0-2.2,1.8-4,4-4H50c2.2,0,4,1.8,4,4V78 c0,2.2-1.8,4-4,4H50c-2.2,0-4-1.8-4-4V34.8z M29.9,34.8c0-2.2,1.8-4,4-4H34c2.2,0,4,1.8,4,4V78c0,2.2-1.8,4-4,4h-0.1 c-2.2,0-4-1.8-4-4V34.8z" fill="rgb(102, 102, 102)" style="fill: rgb(102, 102, 102);"></path></g><g class="ld ld-float-px" style="transform-origin: 50px 50px 0px; animation-duration: 1s; animation-delay: -0.571429s;"><polygon class="st6" points="44.1,11.2 40.3,17.8 59.7,17.8 55.9,11.2 "></polygon></g><g class="ld ld-float-px" style="transform-origin: 50px 50px 0px; animation-duration: 1s; animation-delay: -0.52381s;"><path class="st1" d="M44.1,11.2h11.9l3.8,6.6h7.2l-3.8-6.6L60.7,7c-0.7-1.2-2-2-3.4-2h-3.5h-7.6h-3.5c-1.4,0-2.7,0.8-3.4,2l-2.5,4.3 l-3.8,6.6h7.2L44.1,11.2z" fill="rgb(51, 51, 51)" style="fill: rgb(51, 51, 51);"></path></g><g class="ld ld-float-px" style="transform-origin: 50px 50px 0px; animation-duration: 1s; animation-delay: -0.47619s;"><path class="st21" d="M13.9,21.8L13.9,21.8c0,2.3,1.8,4.1,4,4.1h4.1v0h56.1v0h4.1c2.2,0,4-1.8,4-4v-0.1c0-2.2-1.8-4-4-4H66.9h-7.2 H40.3h-7.2H17.9C15.7,17.8,13.9,19.6,13.9,21.8z" fill="rgb(1, 1, 1)" style="fill: rgb(1, 1, 1);"></path></g><metadata xmlns:d="https://loading.io/stock/" class="ld ld-float-px" style="transform-origin: 50px 50px 0px; animation-duration: 1s; animation-delay: -0.428571s;">
<d:name class="ld ld-float-px" style="transform-origin: 50px 50px 0px; animation-duration: 1s; animation-delay: -0.380952s;">trash can</d:name>
<d:tags class="ld ld-float-px" style="transform-origin: 50px 50px 0px; animation-duration: 1s; animation-delay: -0.333333s;">delete,remove,drop,garbage,recycle bin,can,trash can,web application</d:tags>
<d:license class="ld ld-float-px" style="transform-origin: 50px 50px 0px; animation-duration: 1s; animation-delay: -0.285714s;">cc-by</d:license>
<d:slug class="ld ld-float-px" style="transform-origin: 50px 50px 0px; animation-duration: 1s; animation-delay: -0.238095s;">7w5aga</d:slug>
</metadata></g></g><style type="text/css" class="ld ld-float-px" style="transform-origin: 50px 50px 0px; animation-duration: 1s; animation-delay: -0.190476s;">path,ellipse,circle,rect,polygon,polyline,line { stroke-width: 0; }@keyframes ld-float-px {
  0%, 100% {
    animation-timing-function: cubic-bezier(0.5, 0, 1, 0.5);
  }
  50% {
    animation-timing-function: linear;
  }
  0% {
    -webkit-transform: translate(0, 0);
    transform: translate(0, 0);
    box-shadow: 0 0 0 rgba(0,0,0,0.3);
  }
  30% {
    -webkit-transform: translate(0, -10px);
    transform: translate(0, -10px);
    box-shadow: 0 5px 5px rgba(0,0,0,0.3);
  }
  50% {
    -webkit-transform: translate(0, -10px);
    transform: translate(0, -10px);
    box-shadow: 0 5px 5px rgba(0,0,0,0.3);
  }
  100% {
    -webkit-transform: translate(0, 0);
    transform: translate(0, 0);
    box-shadow: 0 0 0 rgba(0,0,0,0.3);
  }
}
@-webkit-keyframes ld-float-px {
  0%, 100% {
    animation-timing-function: cubic-bezier(0.5, 0, 1, 0.5);
  }
  50% {
    animation-timing-function: linear;
  }
  0% {
    -webkit-transform: translate(0, 0);
    transform: translate(0, 0);
    box-shadow: 0 0 0 rgba(0,0,0,0.3);
  }
  30% {
    -webkit-transform: translate(0, -10px);
    transform: translate(0, -10px);
    box-shadow: 0 5px 5px rgba(0,0,0,0.3);
  }
  50% {
    -webkit-transform: translate(0, -10px);
    transform: translate(0, -10px);
    box-shadow: 0 5px 5px rgba(0,0,0,0.3);
  }
  100% {
    -webkit-transform: translate(0, 0);
    transform: translate(0, 0);
    box-shadow: 0 0 0 rgba(0,0,0,0.3);
  }
}
.ld.ld-float-px {
  -webkit-animation: ld-float-px 1s infinite;
  animation: ld-float-px 1s infinite;
}
</style></svg></svg>