<svg class="ldi-r4re7a" width="200px"  height="200px"  xmlns="http://www.w3.org/2000/svg" xmlns:xlink="http://www.w3.org/1999/xlink" viewBox="0 0 100 100" preserveAspectRatio="xMidYMid" style="background: none;"><!--?xml version="1.0" encoding="utf-8"?--><!--Generator: Adobe Illustrator 21.0.0, SVG Export Plug-In . SVG Version: 6.00 Build 0)--><svg version="1.1" id="圖層_1" xmlns="http://www.w3.org/2000/svg" xmlns:xlink="http://www.w3.org/1999/xlink" x="0px" y="0px" viewBox="0 0 100 100" style="transform-origin: 50px 50px 0px;" xml:space="preserve"><g style="transform-origin: 50px 50px 0px; transform: scale(0.6);"><g style="transform-origin: 50px 50px 0px;"><style type="text/css" class="ld ld-tremble-px" style="transform-origin: 50px 50px 0px; animation-duration: 1s; animation-delay: -1s;">.st0{fill-rule:evenodd;clip-rule:evenodd;fill:#FFDC6C;} .st1{fill:none;stroke:#F8B26A;stroke-width:2.6883;stroke-linecap:round;stroke-miterlimit:10;} .st2{fill:#353035;} .st3{fill:#FFDC6C;} .st4{fill-rule:evenodd;clip-rule:evenodd;fill:#E15B64;} .st5{fill:#F8B26A;} .st6{fill-rule:evenodd;clip-rule:evenodd;fill:#A0C8D7;} .st7{fill-rule:evenodd;clip-rule:evenodd;fill:#B5B5B5;} .st8{fill:#A0C8D7;} .st9{fill-rule:evenodd;clip-rule:evenodd;fill:#F8B26A;} .st10{fill-rule:evenodd;clip-rule:evenodd;fill:#E0E0E0;stroke:#000000;stroke-width:3.8366;stroke-linecap:round;stroke-miterlimit:10;} .st11{fill-rule:evenodd;clip-rule:evenodd;fill:#FFDC6C;stroke:#F47E60;stroke-width:4;stroke-miterlimit:10;} .st12{fill-rule:evenodd;clip-rule:evenodd;fill:#E0E0E0;stroke:#000000;stroke-width:5;stroke-linecap:round;stroke-miterlimit:10;} .st13{fill:#B5B5B5;} .st14{fill-rule:evenodd;clip-rule:evenodd;fill:#E0E0E0;} .st15{fill-rule:evenodd;clip-rule:evenodd;fill:#E0E0E0;stroke:#000000;stroke-width:6.8207;stroke-linecap:round;stroke-miterlimit:10;} .st16{fill:#E0E0E0;} .st17{fill:#E0E0E0;stroke:#FFFFFF;stroke-width:3;stroke-miterlimit:10;} .st18{fill:#77A4BD;} .st19{fill-rule:evenodd;clip-rule:evenodd;fill:#E0E0E0;stroke:#000000;stroke-width:4;stroke-linecap:round;stroke-miterlimit:10;} .st20{fill:#F8B26A;stroke:#000000;stroke-width:3;stroke-miterlimit:10;} .st21{fill:none;stroke:#F8B26A;stroke-width:4.5884;stroke-linecap:round;stroke-miterlimit:10;} .st22{fill:#333333;} .st23{fill:#666666;} .st24{fill:#F47E60;} .st25{fill:#E15B64;} .st26{fill:#C33737;} .st27{fill:none;stroke:#77A4BD;stroke-width:4;stroke-linecap:round;stroke-miterlimit:10;} .st28{fill:none;stroke:#A0C8D7;stroke-width:4;stroke-linecap:round;stroke-miterlimit:10;} .st29{fill:none;stroke:#77A4BD;stroke-width:3.5;stroke-linecap:round;stroke-miterlimit:10;} .st30{fill:none;stroke:#A0C8D7;stroke-width:3.5;stroke-linecap:round;stroke-miterlimit:10;} .st31{fill-rule:evenodd;clip-rule:evenodd;fill:#F5E6C8;} .st32{fill:#E6E6E6;} .st33{fill:none;} .st34{fill:#849B87;} .st35{fill:none;stroke:#C33737;stroke-width:3;stroke-linecap:round;stroke-miterlimit:10;} .st36{fill:#F5E6C8;} .st37{fill:none;stroke:#F8B26A;stroke-width:1.8792;stroke-linecap:round;stroke-miterlimit:10;} .st38{fill:#998675;} .st39{fill:#736357;} .st40{fill-rule:evenodd;clip-rule:evenodd;fill:#80AAF3;} .st41{fill:none;stroke:#A0C8D7;stroke-width:3;stroke-linecap:round;stroke-miterlimit:10;} .st42{fill:none;stroke:#77A4BD;stroke-width:3;stroke-linecap:round;stroke-miterlimit:10;} .st43{fill:none;stroke:#F5E169;stroke-width:4.588;stroke-linecap:round;stroke-miterlimit:10;} .st44{fill:none;stroke:#F8B26A;stroke-width:4.588;stroke-linecap:round;stroke-miterlimit:10;} .st45{fill:none;stroke:#F47E60;stroke-width:4.588;stroke-linecap:round;stroke-miterlimit:10;} .st46{fill:none;stroke:#E15B64;stroke-width:4.588;stroke-linecap:round;stroke-miterlimit:10;} .st47{fill:none;stroke:#E15B64;stroke-width:8;stroke-miterlimit:10;} .st48{fill:none;stroke:#F8B26A;stroke-width:8;stroke-miterlimit:10;} .st49{fill:none;stroke:#ABBD81;stroke-width:8;stroke-miterlimit:10;} .st50{fill:none;stroke:#E15B64;stroke-width:4;stroke-miterlimit:10;} .st51{fill:none;stroke:#F8B26A;stroke-width:4;stroke-miterlimit:10;} .st52{fill:none;stroke:#F5E6C8;stroke-width:4;stroke-miterlimit:10;} .st53{fill:none;stroke:#ABBD81;stroke-width:4;stroke-miterlimit:10;} .st54{fill:none;stroke:#A0C8D7;stroke-width:4;stroke-miterlimit:10;} .st55{fill:none;stroke:#B295E3;stroke-width:4;stroke-miterlimit:10;}</style><g class="ld ld-tremble-px" style="transform-origin: 50px 50px 0px; animation-duration: 1s; animation-delay: -0.966667s;"><circle class="st7" cx="49.7" cy="42.7" r="4.4" fill="rgb(181, 181, 181)" style="fill: rgb(181, 181, 181);"></circle></g><g class="ld ld-tremble-px" style="transform-origin: 50px 50px 0px; animation-duration: 1s; animation-delay: -0.933333s;"><circle class="st7" cx="52.6" cy="36.9" r="3.8" fill="rgb(181, 181, 181)" style="fill: rgb(181, 181, 181);"></circle></g><g class="ld ld-tremble-px" style="transform-origin: 50px 50px 0px; animation-duration: 1s; animation-delay: -0.9s;"><path class="st13" d="M83.8,27.9c-0.3-0.4-0.7-0.7-1-1c-0.1-0.1-0.7-0.6-0.9-0.4c0,0,0.1-0.1,0.1-0.1c0.2-0.3,0.3-0.7,0.3-1.1 c0-0.9-0.3-1.8-0.9-2.6c-0.6-0.7-1.2-1.4-2-1.9c-0.6-0.4-1.2-0.7-1.8-0.8C77.2,20,76.9,20,76.7,20c-0.1,0-0.8,0-0.8,0 c-1.2-2.6-3.9-4.5-7.2-4.5c-2.3,0-4.3,0.9-5.8,2.4c-0.9,1-1.6,2.2-1.9,3.5c-0.6,0.1-1.2,0.4-1.7,0.7c-0.4-0.2-0.9-0.3-1.4-0.4 c0.3-0.9,0.5-1.9,0.5-2.9c0-5.4-4.3-9.7-9.7-9.7c-3.7,0-6.9,2.1-8.6,5.1c-0.6-0.2-1.3-0.3-1.9-0.3c-3.6,0-6.5,2.9-6.5,6.5 c0,0.4,0,0.9,0.1,1.3c-3.3,0.5-5.8,3.4-5.8,6.8c0,3.8,3.1,6.9,6.9,6.9h4.9c0.1,4.1,3.4,7.3,7.5,7.3s7.4-3.3,7.5-7.3h3.9 c0.2,0,0.4,0,0.7,0c0.4,0.1,0.8,0,1.2,0v0h4.3h6h0.3H81h0.8c1.7,0,3.1-2.4,3.1-4.1c0-0.1,0-0.1,0-0.2C84.9,30,84.6,28.8,83.8,27.9z" fill="rgb(181, 181, 181)" style="fill: rgb(181, 181, 181);"></path></g><g class="ld ld-tremble-px" style="transform-origin: 50px 50px 0px; animation-duration: 1s; animation-delay: -0.866667s;"><path class="st7" d="M45.6,50.5h3.9c0.6-0.5,1-1.3,1-2.2c0-1.6-1.3-3-3-3s-3,1.3-3,3C44.6,49.2,45,50,45.6,50.5z" fill="rgb(181, 181, 181)" style="fill: rgb(181, 181, 181);"></path></g><g style="transform-origin: 50px 50px 0px;"><g class="ld ld-tremble-px" style="transform-origin: 50px 50px 0px; animation-duration: 1s; animation-delay: -0.833333s;"><path class="st24" d="M79.5,89.1c-3.1-5.1-9.5-15.1-15.1-24c-4.1-6.4-7.7-12.2-9.5-15c-0.7-1.1-1.8-1.8-3-1.8h-2.1h-4.6H43 c-1.2,0-2.3,0.7-3,1.8c-1.8,2.8-5.5,8.6-9.5,15C24.9,74,18.6,84,15.4,89.1c-0.9,1.4,0,3.3,1.5,3.3h28.3h4.6h28.3 C79.5,92.4,80.4,90.5,79.5,89.1z" fill="rgb(244, 126, 96)" style="fill: rgb(244, 126, 96);"></path></g><g class="ld ld-tremble-px" style="transform-origin: 50px 50px 0px; animation-duration: 1s; animation-delay: -0.8s;"><path class="st26" d="M40.8,62.2c1.8,2.3,4.1,4.5,6.7,4.5s4.9-2.2,6.7-4.5c1.8,2.3,4.1,4.5,6.7,4.5c1.3,0,2.5-0.4,3.6-1 c0.3-0.2,0.4-0.5,0.2-0.8c-4.1-6.4-7.7-12.1-9.5-14.9c-0.7-1.1-1.9-1.8-3.1-1.8h-2.2h-4.8h-2.2c-1.2,0-2.4,0.7-3.1,1.8 c-1.8,2.8-5.4,8.5-9.5,14.9c-0.2,0.3-0.1,0.7,0.2,0.8c1.1,0.6,2.3,1,3.6,1C36.7,66.7,39,64.5,40.8,62.2z" fill="rgb(195, 55, 55)" style="fill: rgb(195, 55, 55);"></path></g><g style="transform-origin: 50px 50px 0px;"><g class="ld ld-tremble-px" style="transform-origin: 50px 50px 0px; animation-duration: 1s; animation-delay: -0.766667s;"><path class="st26" d="M47.7,61.9c-0.4,3.4-1.8,6.5-3.8,9.1c-1,1.3-2.2,2.4-3.5,3.4c-1.2,0.9-2.3,1.8-2.6,2.8c-0.2,0.5-0.2,1,0,1.6 c0.2,0.6,0.6,1.2,1,1.8c0.4,0.6,0.8,1.3,1.1,2.1c0.3,0.8,0.4,1.7,0.2,2.5c-0.2,0.8-0.7,1.5-1.2,2.1c-0.5,0.6-1.1,1.1-1.7,1.5 c-1.2,0.9-2.4,1.9-3,3.3c0.4-1.5,1.5-2.6,2.6-3.6c1.1-1,2.1-2.2,2.3-3.5c0.2-1.3-0.7-2.4-1.6-3.6c-0.5-0.6-1-1.2-1.3-2 c-0.4-0.8-0.6-1.8-0.4-2.8c0.2-1,0.7-1.8,1.2-2.4c0.5-0.7,1.1-1.2,1.7-1.7c1.1-1,1.9-2,2.7-3.2c1.4-2.3,2.2-5,2.3-7.6L47.7,61.9z" fill="rgb(195, 55, 55)" style="fill: rgb(195, 55, 55);"></path></g></g><g style="transform-origin: 50px 50px 0px;"><g class="ld ld-tremble-px" style="transform-origin: 50px 50px 0px; animation-duration: 1s; animation-delay: -0.733333s;"><path class="st26" d="M43.2,71.6c-0.1,0.6-0.1,1.1-0.1,1.5c0,0.4,0.1,0.7,0.3,1c0.5,0.7,1.8,1.4,2.7,2.2c0.9,0.9,1.8,2,2,3.4 c0,0.3,0,0.7-0.1,1c-0.1,0.3-0.4,0.6-0.5,0.8c-0.4,0.4-0.5,1-0.4,1.6c-0.2-0.6-0.2-1.3,0.1-1.8c0.3-0.6,0.4-1,0.3-1.5 c-0.3-1-1.2-1.8-2.2-2.3c-0.5-0.3-1-0.5-1.5-0.8c-0.5-0.3-1.2-0.5-1.8-1c-0.6-0.5-1.1-1.4-1.3-2.1c-0.2-0.8-0.3-1.5-0.3-2.1 L43.2,71.6z" fill="rgb(195, 55, 55)" style="fill: rgb(195, 55, 55);"></path></g></g><g style="transform-origin: 50px 50px 0px;"><g class="ld ld-tremble-px" style="transform-origin: 50px 50px 0px; animation-duration: 1s; animation-delay: -0.7s;"><path class="st26" d="M54,57.8c0.1,1.7-0.2,3.2-0.3,4.5c-0.1,1.3,0,2.4,0.4,3.2c0.5,0.9,1.5,1.6,2.6,2.3c1.2,0.7,2.6,1.2,3.8,2.2 c1.3,1,2.3,2.5,2.4,4.2c0,0.9-0.3,1.8-0.7,2.4c-0.4,0.7-0.9,1.2-1.3,1.7c-0.8,1.1-1.6,2.3-2.1,3.6c-0.3,0.6-0.6,1.3-0.7,1.9 c-0.1,0.6,0.2,1.4,0.9,1.7c-0.7-0.1-1.2-0.9-1.1-1.7c0-0.8,0.3-1.4,0.5-2.1c0.5-1.4,1-2.7,1.8-3.9c0.8-1.3,1.6-2.4,1.4-3.5 c-0.2-1.1-1-2.1-2-2.7c-1.1-0.7-2.4-1.1-3.7-1.6c-1.4-0.6-2.9-1.3-4.1-2.8c-0.6-0.8-0.9-1.6-1.1-2.5c-0.2-0.9-0.3-1.7-0.3-2.4 c-0.1-1.5,0-2.9-0.2-4L54,57.8z" fill="rgb(195, 55, 55)" style="fill: rgb(195, 55, 55);"></path></g></g><g style="transform-origin: 50px 50px 0px;"><g class="ld ld-tremble-px" style="transform-origin: 50px 50px 0px; animation-duration: 1s; animation-delay: -0.666667s;"><path class="st26" d="M61.7,76.8c0.7,0.9,1.4,1.9,1.9,3.1c0.5,1.1,0.6,2.5,0.1,3.5c0.2-1.1-0.3-2.2-1-3c-0.7-0.8-1.5-1.5-2.4-2.1 L61.7,76.8z" fill="rgb(195, 55, 55)" style="fill: rgb(195, 55, 55);"></path></g></g><g class="ld ld-tremble-px" style="transform-origin: 50px 50px 0px; animation-duration: 1s; animation-delay: -0.633333s;"><path class="st5" d="M51.3,52.2h-7.6c-0.7,0-1.2-0.6-1.2-1.2v0c0-0.7,0.6-1.2,1.2-1.2h7.6c0.7,0,1.2,0.6,1.2,1.2v0 C52.6,51.7,52,52.2,51.3,52.2z" fill="rgb(248, 178, 106)" style="fill: rgb(248, 178, 106);"></path></g><g style="transform-origin: 50px 50px 0px;"><g class="ld ld-tremble-px" style="transform-origin: 50px 50px 0px; animation-duration: 1s; animation-delay: -0.6s;"><path class="st5" d="M47.4,50.7c1,0.9,1.7,2.1,2,3.3c0.4,1.2,0.5,2.5,0.3,3.7c-0.1,1.2-0.4,2.4-0.9,3.5c-0.5,1.1-1.1,2.1-1.7,3.1 c-1.3,1.9-2.8,3.7-4.1,5.6c-0.6,0.9-1.1,2-1.1,3.1c0,1.1,0.6,2.3,1.7,2.7c-1.1-0.4-1.8-1.5-1.9-2.7c-0.1-1.2,0.3-2.4,0.9-3.4 c1.1-2,2.5-3.9,3.6-5.8c1.1-2,1.9-4,2-6.2c0-1.1-0.1-2.1-0.5-3.1c-0.4-0.9-0.9-1.7-1.7-2.4L47.4,50.7z" fill="rgb(248, 178, 106)" style="fill: rgb(248, 178, 106);"></path></g></g><g style="transform-origin: 50px 50px 0px;"><g class="ld ld-tremble-px" style="transform-origin: 50px 50px 0px; animation-duration: 1s; animation-delay: -0.566667s;"><path class="st5" d="M49.5,58.2c0,0.9,0.3,1.9,0.8,2.8c0.5,0.9,1.1,1.8,1.7,2.7c0.6,0.9,1.1,1.9,1.6,2.9c0.5,0.9,1.3,1.8,2.4,2 c-1.1,0-2.1-0.9-2.7-1.8c-0.6-0.9-1.2-1.8-1.9-2.6c-0.7-0.8-1.4-1.6-2-2.6c-0.6-0.9-1.1-2-1.3-3.3L49.5,58.2z" fill="rgb(248, 178, 106)" style="fill: rgb(248, 178, 106);"></path></g></g></g><metadata xmlns:d="https://loading.io/stock/" class="ld ld-tremble-px" style="transform-origin: 50px 50px 0px; animation-duration: 1s; animation-delay: -0.533333s;">
<d:name class="ld ld-tremble-px" style="transform-origin: 50px 50px 0px; animation-duration: 1s; animation-delay: -0.5s;">volcano</d:name>
<d:tags class="ld ld-tremble-px" style="transform-origin: 50px 50px 0px; animation-duration: 1s; animation-delay: -0.466667s;">erupt,mound,magma,lava,dust,cloud,smoke,fuji,mountain,hill,volcano,weather</d:tags>
<d:license class="ld ld-tremble-px" style="transform-origin: 50px 50px 0px; animation-duration: 1s; animation-delay: -0.433333s;">rf</d:license>
<d:slug class="ld ld-tremble-px" style="transform-origin: 50px 50px 0px; animation-duration: 1s; animation-delay: -0.4s;">r4re7a</d:slug>
</metadata></g></g><style type="text/css" class="ld ld-tremble-px" style="transform-origin: 50px 50px 0px; animation-duration: 1s; animation-delay: -0.366667s;">path,ellipse,circle,rect,polygon,polyline,line { stroke-width: 0; }@keyframes ld-tremble-px {
  0% {
    -webkit-transform: translate(1px, 1px);
    transform: translate(1px, 1px);
  }
  5% {
    -webkit-transform: translate(0, 1px);
    transform: translate(0, 1px);
  }
  10% {
    -webkit-transform: translate(1px, 2px);
    transform: translate(1px, 2px);
  }
  15% {
    -webkit-transform: translate(2px, 1px);
    transform: translate(2px, 1px);
  }
  20% {
    -webkit-transform: translate(3px, 0);
    transform: translate(3px, 0);
  }
  25% {
    -webkit-transform: translate(1px, 2px);
    transform: translate(1px, 2px);
  }
  30% {
    -webkit-transform: translate(1px, 3px);
    transform: translate(1px, 3px);
  }
  35% {
    -webkit-transform: translate(0, 1px);
    transform: translate(0, 1px);
  }
  40% {
    -webkit-transform: translate(1px, 1px);
    transform: translate(1px, 1px);
  }
  45% {
    -webkit-transform: translate(1px, 0);
    transform: translate(1px, 0);
  }
  50% {
    -webkit-transform: translate(2px, 1px);
    transform: translate(2px, 1px);
  }
  55% {
    -webkit-transform: translate(1px, 2px);
    transform: translate(1px, 2px);
  }
  60% {
    -webkit-transform: translate(3px, 1px);
    transform: translate(3px, 1px);
  }
  65% {
    -webkit-transform: translate(0, 2px);
    transform: translate(0, 2px);
  }
  70% {
    -webkit-transform: translate(3px, 0);
    transform: translate(3px, 0);
  }
  75% {
    -webkit-transform: translate(0, 0);
    transform: translate(0, 0);
  }
  80% {
    -webkit-transform: translate(2px, 3px);
    transform: translate(2px, 3px);
  }
  85% {
    -webkit-transform: translate(1px, 0);
    transform: translate(1px, 0);
  }
  90% {
    -webkit-transform: translate(0, 2px);
    transform: translate(0, 2px);
  }
  95% {
    -webkit-transform: translate(3px, 2px);
    transform: translate(3px, 2px);
  }
}
@-webkit-keyframes ld-tremble-px {
  0% {
    -webkit-transform: translate(1px, 1px);
    transform: translate(1px, 1px);
  }
  5% {
    -webkit-transform: translate(0, 1px);
    transform: translate(0, 1px);
  }
  10% {
    -webkit-transform: translate(1px, 2px);
    transform: translate(1px, 2px);
  }
  15% {
    -webkit-transform: translate(2px, 1px);
    transform: translate(2px, 1px);
  }
  20% {
    -webkit-transform: translate(3px, 0);
    transform: translate(3px, 0);
  }
  25% {
    -webkit-transform: translate(1px, 2px);
    transform: translate(1px, 2px);
  }
  30% {
    -webkit-transform: translate(1px, 3px);
    transform: translate(1px, 3px);
  }
  35% {
    -webkit-transform: translate(0, 1px);
    transform: translate(0, 1px);
  }
  40% {
    -webkit-transform: translate(1px, 1px);
    transform: translate(1px, 1px);
  }
  45% {
    -webkit-transform: translate(1px, 0);
    transform: translate(1px, 0);
  }
  50% {
    -webkit-transform: translate(2px, 1px);
    transform: translate(2px, 1px);
  }
  55% {
    -webkit-transform: translate(1px, 2px);
    transform: translate(1px, 2px);
  }
  60% {
    -webkit-transform: translate(3px, 1px);
    transform: translate(3px, 1px);
  }
  65% {
    -webkit-transform: translate(0, 2px);
    transform: translate(0, 2px);
  }
  70% {
    -webkit-transform: translate(3px, 0);
    transform: translate(3px, 0);
  }
  75% {
    -webkit-transform: translate(0, 0);
    transform: translate(0, 0);
  }
  80% {
    -webkit-transform: translate(2px, 3px);
    transform: translate(2px, 3px);
  }
  85% {
    -webkit-transform: translate(1px, 0);
    transform: translate(1px, 0);
  }
  90% {
    -webkit-transform: translate(0, 2px);
    transform: translate(0, 2px);
  }
  95% {
    -webkit-transform: translate(3px, 2px);
    transform: translate(3px, 2px);
  }
}
.ld.ld-tremble-px {
  -webkit-animation: ld-tremble-px 1s infinite;
  animation: ld-tremble-px 1s infinite;
}
</style></svg></svg>